<?xml version="1.0" encoding="utf-8"?>
<svg xmlns="http://www.w3.org/2000/svg" xmlns:xlink="http://www.w3.org/1999/xlink">
    <symbol viewBox="0 0 95 57.5" id="arrow" xmlns="http://www.w3.org/2000/svg">
        <path d="M0 10.1C0 7.5 1 5 2.9 3 6.8-.9 13.2-.9 17.1 3l30.4 30.3L77.9 2.9C81.8-1 88.2-1 92.1 2.9s3.9 10.3 0 14.2L54.6 54.6c-1.9 1.9-4.4 2.9-7.1 2.9s-5.2-1.1-7.1-2.9L2.9 17.2C1 15.2 0 12.6 0 10.1z" fill="#42b5e8" />
    </symbol>
    <symbol viewBox="0 0 32 32" id="autofunnel" xmlns="http://www.w3.org/2000/svg">
        <path d="M13.5 24.2V17L9 11.9c-.6-.8-.5-1.4-.4-1.7.2-.5.8-.7 1.6-.7h11.6c.8 0 1.4.3 1.6.7.1.3.2.9-.4 1.7L18.5 17v4.3c0 .2-.1.4-.3.5l-4.3 2.6c-.2.1-.4 0-.4-.2z" fill="none" stroke-miterlimit="10" />
    </symbol>
    <symbol viewBox="0 0 32 32" id="automation" xmlns="http://www.w3.org/2000/svg">
        <path d="M16 14.178l2.463 1.422a1 1 0 010 1.732L16 18.753a1 1 0 01-1.5-.866v-2.843a1 1 0 011.5-.866zm9 3.534v-2.424c-1.238-.44-2.021-.564-2.414-1.514v-.001c-.395-.953.075-1.601.635-2.78l-1.714-1.714c-1.171.557-1.825 1.031-2.78.635h-.001c-.952-.394-1.076-1.182-1.514-2.414h-2.424c-.436 1.226-.562 2.019-1.514 2.414h-.001c-.953.396-1.599-.073-2.78-.635l-1.714 1.714c.559 1.176 1.031 1.825.635 2.78-.395.953-1.188 1.079-2.414 1.515v2.424c1.224.435 2.019.562 2.414 1.514.398.962-.085 1.625-.635 2.78l1.714 1.714c1.171-.557 1.825-1.031 2.78-.635h.001c.953.395 1.077 1.184 1.514 2.414h2.424c.436-1.227.562-2.017 1.52-2.417h.001c.947-.393 1.59.076 2.774.638l1.714-1.714c-.558-1.172-1.031-1.825-.636-2.78.394-.952 1.19-1.078 2.415-1.514z" fill="none" stroke-linecap="round" stroke-miterlimit="10" />
    </symbol>
    <symbol viewBox="0 0 32 32" id="autoresponders" xmlns="http://www.w3.org/2000/svg">
        <path d="M11.5 6v5m9-5v5m5 2.5h-19m15 13h-11a4 4 0 01-4-4v-10a4 4 0 014-4h11a4 4 0 014 4v10a4 4 0 01-4 4zm-5-8l2-1.5v6m-7-4.5l2-1.5v6" fill="none" stroke="#000" stroke-miterlimit="10" stroke-width=".976" />
    </symbol>
    <symbol viewBox="0 0 73.9 63.1" id="big1" xmlns="http://www.w3.org/2000/svg">
        <g stroke-miterlimit="10" stroke-width="2">
            <path d="M10 9.7v9m25.1 4.4H1m26.9 23.3H8.2c-4 0-7.2-3.2-7.2-7.2V21.3c0-4 3.2-7.2 7.2-7.2h19.7c4 0 7.2 3.2 7.2 7.2v17.9c0 4-3.3 7.2-7.2 7.2z" fill="#fff" stroke="#00baff" />
            <path d="M65.7 23.1l7.2 6.2v28.1c0 2.6-2.2 4.7-4.8 4.7H23.8c-2.6 0-4.8-2-4.8-4.7V29.3l7.2-6.2" fill="#fff" stroke="#7990a1" />
            <path d="M65.7 34.7V1H26.2v33.6" fill="#fff" stroke="#7990a1" />
            <g fill="none">
                <path d="M19 29.3l23.4 17.2c2.1 1.5 4.9 1.5 7 0l23.4-17.2" stroke="#7990a1" />
                <path d="M32.3 20.1h13.9l4.3-4.1 4.2 4.1h4.9" stroke="#00baff" />
                <circle cx="40.6" cy="13.8" r="2.7" stroke="#00baff" />
                <path d="M57.3 6.4H34.6c-1.2 0-2.3 1.1-2.3 2.3v15.9c0 1.2 1.1 2.3 2.3 2.3h22.7c1.2 0 2.3-1.1 2.3-2.3V8.8c0-1.3-1.1-2.4-2.3-2.4z" stroke="#7990a1" />
            </g>
        </g>
        <path clip-rule="evenodd" d="M9.4 27.8c-.8 0-1.5.7-1.5 1.5s.7 1.5 1.5 1.5 1.5-.7 1.5-1.5c0-.9-.7-1.5-1.5-1.5zm0 5.1c-.8 0-1.5.7-1.5 1.5s.7 1.5 1.5 1.5 1.5-.7 1.5-1.5-.7-1.5-1.5-1.5zm0 5c-.8 0-1.5.7-1.5 1.5s.7 1.5 1.5 1.5 1.5-.7 1.5-1.5-.7-1.5-1.5-1.5zm5.1-7.2c.8 0 1.5-.7 1.5-1.5s-.7-1.5-1.5-1.5-1.5.7-1.5 1.5.7 1.5 1.5 1.5zm0 2.2c-.8 0-1.5.7-1.5 1.5s.7 1.5 1.5 1.5 1.5-.7 1.5-1.5-.7-1.5-1.5-1.5zm0 5c-.8 0-1.5.7-1.5 1.5s.7 1.5 1.5 1.5 1.5-.7 1.5-1.5c-.1-.8-.7-1.5-1.5-1.5z" fill="#7990a1" fill-rule="evenodd" />
        <g fill="none" stroke="#00baff" stroke-linecap="round" stroke-miterlimit="10" stroke-width="2">
            <path d="M36.1 31.9h19.7M36.1 36.8H50" />
        </g>
    </symbol>
    <symbol viewBox="0 0 79.1 65.5" id="big2" xmlns="http://www.w3.org/2000/svg">
        <path d="M48.3 64.4h-29c-3.9 0-7.1-3.2-7.1-7.1V19.8c0-3.9 3.2-7.1 7.1-7.1h29.1c3.9 0 7.1 3.2 7.1 7.1v37.6c-.1 3.9-3.3 7-7.2 7zM12.2 34h43.2m-21.6 0v30.4" fill="#fff" stroke="#7990a1" stroke-miterlimit="10" stroke-width="2" />
        <path d="M45.5 52.6h30.9c.9 0 1.7-.8 1.7-1.7v-27c0-.9-.8-1.7-1.7-1.7H45.5c-.9 0-1.7.8-1.7 1.7v26.9c0 1 .7 1.8 1.7 1.8z" fill="#fff" stroke="#00baff" stroke-miterlimit="10" stroke-width="2" />
        <path d="M54.7 45.8h12.5c1.1 0 2.1-.9 2.1-2.1 0-1.1-.9-2.1-2.1-2.1H54.7c-1.1 0-2.1.9-2.1 2.1 0 1.3.9 2.1 2.1 2.1z" fill="#00baff" />
        <g stroke-miterlimit="10">
            <g stroke="#00baff" stroke-width="2">
                <path d="M30.3 1H3.7C2.3 1 1 2.3 1 3.7v18.6C1 23.8 2.3 25 3.7 25h26.6c1.4 0 2.7-1.3 2.7-2.7V3.8c.1-1.5-1.2-2.8-2.7-2.8z" fill="#fff" />
                <path d="M1.9 17h15.5l4.9-4.8 5 4.8h4.3" fill="none" />
                <circle cx="10.8" cy="9.7" fill="none" r="3.2" />
            </g>
            <path d="M51.9 31.8h18M51.9 36.8h18" fill="#fff" stroke="#7990a1" stroke-linecap="round" stroke-linejoin="round" stroke-width="1.943" />
        </g>
    </symbol>
    <symbol viewBox="0 0 78.7 74.5" id="big3" xmlns="http://www.w3.org/2000/svg">
        <g stroke-miterlimit="10">
            <g stroke-width="2">
                <path clip-rule="evenodd" d="M20.1 20.8L39.5 1.7c1-.9 2.5-.9 3.5 0l19.3 19.1c1 .9 1 2.5 0 3.4L43 43.4c-1 .9-2.5.9-3.5 0L20.1 24.3c-.9-1-.9-2.5 0-3.5z" fill="#fff" fill-rule="evenodd" stroke="#7990a1" />
                <path d="M12.6 49.2l12.6 12.6c.5.5.5 1.5 0 2l-9.4 9.4c-.5.5-1.5.5-2 0L1.3 60.5c-.2-.3-.3-.7-.3-1v-9.4c0-.8.7-1.3 1.3-1.3h9.4c.3.1.6.3.9.4zm-3.9 7.2c1-1 1-2.5 0-3.4-1-1-2.5-1-3.4 0-1 1-1 2.5 0 3.4.9 1 2.4 1 3.4 0zM75.5 71.3H55.2c-1.2 0-2.2-1-2.2-2.2v-13c0-1.2 1-2.2 2.2-2.2h20.2c1.2 0 2.2 1 2.2 2.2v13c.1 1.2-.9 2.2-2.1 2.2zM53.4 54.8l10.2 7.3c1 .7 2.3.7 3.2 0l10.4-7.3" fill="#fff" stroke="#00baff" />
                <g clip-rule="evenodd" stroke="#7990a1">
                    <path d="M52.3 30.5c1.4 0 2.6 1.1 2.6 2.5s-1.1 2.5-2.5 2.5-2.5-1.1-2.5-2.5c-.1-1.3 1-2.5 2.4-2.5zM30.2 30.8c1.4 0 2.6 1.1 2.6 2.5s-1.1 2.5-2.5 2.5-2.5-1.1-2.5-2.5c-.2-1.4 1-2.5 2.4-2.5z" fill="#fff" fill-rule="evenodd" />
                    <path d="M30 35.4s1.5 9.2-6.2 9.2-6.4 9.5-6.4 9.5M52.6 35s-1.5 8.8 6.2 8.8 6.5 9.1 6.5 9.1" fill="none" />
                    <path d="M65.3 51.5c1.4 0 2.6 1.1 2.6 2.5s-1.1 2.5-2.5 2.5-2.5-1.1-2.5-2.5c-.1-1.4 1-2.5 2.4-2.5z" fill="#fff" fill-rule="evenodd" />
                </g>
                <path d="M31.4 15h2c.9 0 1.1.9 1.2 1.2s2.1 8.3 2.1 8.3.2 1.2 1.2 1.2h7.4c1 0 1.3-1.6 1.2-1.3s1.4-5.5 1.4-5.5.3-1.2-1.3-1.2H35.2" fill="none" stroke="#00baff" stroke-linecap="round" stroke-linejoin="round" />
                <path clip-rule="evenodd" d="M17.4 51.5c1.4 0 2.6 1.1 2.6 2.5s-1.1 2.5-2.5 2.5S15 55.4 15 54c-.2-1.4 1-2.5 2.4-2.5z" fill="#fff" fill-rule="evenodd" stroke="#7990a1" />
            </g>
            <g fill="#00baff" stroke="#00baff">
                <circle cx="44.7" cy="30" r="1.4" />
                <circle cx="38.3" cy="30" r="1.4" />
            </g>
        </g>
    </symbol>
    <symbol viewBox="0 0 87.7 76.9" id="big4" xmlns="http://www.w3.org/2000/svg">
        <g fill="#fff" stroke-miterlimit="10" stroke-width="2">
            <path d="M16.3 69h51.9c1.6 0 2.9-1.3 2.9-2.9V10.9c0-1.6-1.3-2.9-2.9-2.9H16.3c-1.6 0-2.9 1.3-2.9 2.9v55.2c-.1 1.6 1.2 2.9 2.9 2.9z" stroke="#7990a1" />
            <path d="M37.1 60.1V44.4l-9.2-11.2c-1.2-1.7-1-3.1-.8-3.7.4-1.1 1.6-1.5 3.3-1.5h23.8c1.6 0 2.9.7 3.3 1.5.2.7.4 2-.8 3.7l-9.2 11.2v9.5c0 .4-.2.8-.5 1l-8.9 5.7c-.5.2-1-.1-1-.5z" stroke="#00baff" />
            <circle cx="71.3" cy="63.2" r="12.7" stroke="#7990a1" />
        </g>
        <path d="M74.5 67.7c-.6.6-1.4.9-2.3 1v1.1c0 .2-.1.4-.2.5s-.3.2-.5.2-.4-.1-.5-.2-.2-.3-.2-.5v-1.1c-.6-.1-1.2-.2-1.8-.4s-1.1-.5-1.5-.8c-.2-.1-.3-.4-.3-.6s0-.3.1-.5c.1-.1.2-.2.4-.2.1 0 .3.1.5.2 1 .7 2 1 3 1 .8 0 1.4-.2 1.8-.5s.6-.7.6-1.3c0-.3-.1-.6-.3-.8s-.5-.4-.8-.5-.8-.3-1.4-.4c-.8-.2-1.4-.4-1.9-.6s-.9-.5-1.2-.9-.5-1-.5-1.6c0-.8.3-1.5.9-2.1s1.4-.9 2.4-1v-1.1c0-.2.1-.4.2-.5s.3-.2.5-.2.4.1.5.2.2.3.2.5v1.1c.5.1 1 .2 1.5.4s.9.5 1.3.8c.2.2.3.4.3.6s-.1.3-.2.5c-.1.1-.2.2-.4.2s-.3-.1-.5-.2c-.4-.3-.9-.6-1.3-.8s-.9-.2-1.4-.2c-.7 0-1.3.2-1.7.5s-.6.8-.6 1.3c0 .4.1.7.4.9.2.2.5.4.9.6s.8.3 1.4.4c.8.2 1.4.4 1.8.6.5.2.9.5 1.2.9s.5.9.5 1.6c-.1.7-.4 1.3-.9 1.9z" fill="#7990a1" />
        <g stroke-miterlimit="10">
            <g stroke-width="2">
                <path d="M86.7 36.2h-2v-5.6H79v-2h7.7z" fill="none" stroke="#fff" stroke-linecap="round" />
                <path d="M54.6 48.4l-1.3-1.6 9.4-7.6 10.1 1.6 12-11.5 1.4 1.4-12.7 12.2-10.2-1.6z" fill="none" stroke="#fff" />
                <path d="M85.5 30L73.2 41.8 63 40.2l-9 7.4" fill="none" stroke="#00baff" />
                <path d="M79 29.6h6.7v6.6" fill="none" stroke="#00baff" stroke-linecap="round" />
                <path d="M25.8 15.9v-3.3c-1.7-.6-2.8-.8-3.3-2.1s.1-2.2.9-3.8L21 4.3c-1.6.8-2.5 1.4-3.8.9s-1.5-1.6-2.1-3.3h-3.3c-.7 1.6-.8 2.7-2.2 3.3-1.3.5-2.2-.1-3.8-.9L3.5 6.7c.8 1.6 1.4 2.5.9 3.8-.6 1.3-1.7 1.5-3.4 2.1v3.3c1.7.6 2.8.8 3.3 2.1s-.1 2.2-.9 3.8l2.4 2.4c1.6-.8 2.5-1.4 3.8-.9s1.5 1.6 2.1 3.3H15c.6-1.7.8-2.8 2.1-3.3s2.2.1 3.8.9l2.4-2.4c-.8-1.6-1.4-2.5-.9-3.8.6-1.3 1.7-1.5 3.4-2.1z" fill="#fff" stroke="#7990a1" />
            </g>
            <circle cx="13.4" cy="14.3" fill="#fff" r="2.2" stroke="#7990a1" stroke-width="1.5" />
            <path d="M30.1 22.7v-1c0-4.1 2.7-7.6 6.5-8.9-1-1-1.7-2.3-1.7-3.8 0-2.8 2.1-5 4.8-5.2 1-1.7 2.7-2.8 4.6-2.8.6 0 1.1.1 1.7.3 1.6.5 2.8 1.8 3.3 3.4s.2 3.2-.8 4.5c-.2.3-.5.6-.7.8 3.9 1.3 6.6 4.8 6.6 8.9v2.3l-10-9.3c-.2.3-.5.6-.7.8 3.8 1.4 6.5 4.8 6.5 8.9v1H30.1z" fill="none" stroke="#fff" stroke-linecap="round" stroke-width="2" />
            <path d="M31.1 21.7c0-4.8 4.1-8.5 9.1-8.5s9.1 3.8 9.1 8.5m-9.1-8.6c2.5 0 4.4-2.1 4.2-4.7-.2-1.9-1.8-3.5-3.7-3.7-2.6-.2-4.7 1.7-4.7 4.2 0 2.4 1.9 4.2 4.2 4.2zm4.1-2.7c5 0 9.1 3.8 9.1 8.5m-9.3-8.5c2.8 0 5.1-2.6 4.2-5.5-.4-1.3-1.4-2.3-2.7-2.7-2.3-.8-4.5.5-5.3 2.5" fill="#fff" stroke="#00baff" stroke-linecap="round" stroke-width="2" />
        </g>
    </symbol>
    <symbol viewBox="0 0 62 59.2" id="boost" xmlns="http://www.w3.org/2000/svg">
        <path d="M56.1 45H34.2c-2.7 0-4.9-2.2-4.9-4.9V16.2c0-2.7 2.2-4.9 4.9-4.9h21.9c2.7 0 4.9 2.2 4.9 4.9v23.9c0 2.7-2.2 4.9-4.9 4.9zM29.3 25.2H61m-15.8 0V45" fill="#fff" stroke="#7e909f" stroke-miterlimit="10" stroke-width="2" />
        <path d="M32.5 58.2H4.1c-1.7 0-3.1-1.4-3.1-3.1V36.9c0-1.7 1.4-3.1 3.1-3.1h28.4c1.7 0 3.1 1.4 3.1 3.1v18.2c0 1.7-1.4 3.1-3.1 3.1z" fill="#fff" stroke="#7e909f" stroke-miterlimit="10" stroke-width="2" />
        <path d="M1.6 35.1l14.3 10.2c1.3.9 3.2.9 4.5 0L35 35.1" fill="#fff" stroke="#7e909f" stroke-miterlimit="10" stroke-width="2" />
        <path d="M8.6 52.8c-2 0-3.7-1.7-3.7-3.7s1.7-3.7 3.7-3.7c.2 0 .4 0 .6.1L20.3 27c-.3-.6-.5-1.2-.5-1.9 0-2 1.7-3.7 3.7-3.7 1.4 0 2.7.8 3.3 2.1h8c.6-1.3 1.9-2.1 3.3-2.1.2 0 .4 0 .6.1L49.8 6.1c-.3-.6-.5-1.2-.5-1.9 0-2 1.7-3.7 3.7-3.7s3.7 1.7 3.7 3.7-1.6 3.7-3.7 3.7c-.2 0-.4 0-.6-.1L41.3 23.3c.3.6.5 1.2.5 1.9 0 2-1.7 3.7-3.7 3.7-1.4 0-2.7-.8-3.3-2.1h-8c-.6 1.3-1.9 2.1-3.3 2.1-.2 0-.4 0-.6-.1L11.7 47.2c.3.6.5 1.2.5 1.9.1 2-1.6 3.7-3.6 3.7zm29.5-28.2c-.3 0-.6.2-.6.6s.2.6.6.6.6-.2.6-.6-.3-.6-.6-.6zm-14.7 0c-.3 0-.6.2-.6.6s.2.6.6.6.6-.2.6-.6-.2-.6-.6-.6zM53 3.6c-.3 0-.6.2-.6.6s.2.6.6.6.6-.2.6-.6-.3-.6-.6-.6z" fill="currentColor" />
        <g fill="#fff">
            <path d="M53 1c1.8 0 3.2 1.4 3.2 3.2S54.8 7.4 53 7.4c-.3 0-.6 0-.8-.1l-11.5 16c.4.5.6 1.2.6 1.9 0 1.8-1.4 3.2-3.2 3.2-1.4 0-2.6-.9-3-2.1h-8.7c-.4 1.2-1.6 2.1-3 2.1-.3 0-.6 0-.8-.1L11.2 47.2c.4.5.6 1.2.6 1.9 0 1.8-1.4 3.2-3.2 3.2s-3.2-1.4-3.2-3.2 1.4-3.2 3.2-3.2c.3 0 .6 0 .8.1l11.4-19c-.4-.5-.6-1.2-.6-1.9 0-1.8 1.4-3.2 3.2-3.2 1.4 0 2.6.9 3 2.1h8.7c.4-1.2 1.6-2.1 3-2.1.3 0 .6 0 .8.1L50.4 6c-.4-.5-.6-1.2-.6-1.9C49.8 2.4 51.3 1 53 1zm0 4.3c.6 0 1.1-.5 1.1-1.1s-.5-1.1-1.1-1.1-1.1.5-1.1 1.1.5 1.1 1.1 1.1M38.1 26.2c.6 0 1.1-.5 1.1-1.1s-.5-1.1-1.1-1.1-1.1.5-1.1 1.1.5 1.1 1.1 1.1m-14.7 0c.6 0 1.1-.5 1.1-1.1S24 24 23.4 24s-1.1.5-1.1 1.1.5 1.1 1.1 1.1M53 0c-2.3 0-4.2 1.9-4.2 4.2 0 .6.1 1.2.4 1.8L38.5 21h-.4c-1.5 0-2.9.8-3.6 2.1h-7.4c-.7-1.3-2.1-2.1-3.6-2.1-2.3 0-4.2 1.9-4.2 4.2 0 .7.2 1.3.4 1.9L8.9 44.9h-.3c-2.3 0-4.2 1.9-4.2 4.2s1.9 4.2 4.2 4.2 4.2-1.9 4.2-4.2c0-.7-.2-1.3-.4-1.9l10.8-17.8h.3c1.5 0 2.9-.8 3.7-2.1h7.4c.7 1.3 2.1 2.1 3.7 2.1 2.3 0 4.2-1.9 4.2-4.2 0-.6-.1-1.2-.4-1.8l10.7-15h.4c2.3 0 4.2-1.9 4.2-4.2S55.3 0 53 0zm0 4.3s-.1-.1 0 0c-.1-.1 0-.1 0-.1.1-.1.1-.1 0 .1.1-.1.1 0 0 0zM38.1 25.2c-.1-.1 0-.1 0-.1.1 0 .1 0 0 .1.1 0 .1 0 0 0zm-14.7 0c-.1-.1 0-.1 0-.1.1 0 .1 0 0 .1.1 0 .1 0 0 0z" />
            <circle cx="8.6" cy="49.1" r="1.1" />
            <circle cx="23.4" cy="25.2" r="1.1" />
            <circle cx="38.1" cy="25.2" r="1.1" />
            <circle cx="53" cy="4.2" r="1.1" />
        </g>
    </symbol>
    <symbol viewBox="0 0 22.08 19" id="campaigns" xmlns="http://www.w3.org/2000/svg">
        <path d="M8.54 16.7V9.53L4 4.43a1.78 1.78 0 01-.4-1.7c.2-.5.8-.7 1.6-.7h11.6a1.75 1.75 0 011.6.7 1.78 1.78 0 01-.4 1.7l-4.5 5.1v4.35a.55.55 0 01-.27.47L9 16.93a.27.27 0 01-.46-.23z" fill="none" stroke-miterlimit="10" />
    </symbol>
    <symbol viewBox="0 0 32 32" id="chats" xmlns="http://www.w3.org/2000/svg">
        <path d="M9.2 16.37h-.9a1.8 1.8 0 01-1.8-1.8v-5.4a1.8 1.8 0 011.8-1.8h9a1.8 1.8 0 011.8 1.8v5.4a1.8 1.8 0 01-1.8 1.8h-4.108M9.2 16.37v3.089M9.2 19.459l3.992-3.092M11.9 17.368v3.113a1.8 1.8 0 001.8 1.8h4.108M21.8 22.281h.9a1.8 1.8 0 001.8-1.8v-5.4a1.8 1.8 0 00-1.8-1.8h-3.6M21.8 22.281v3.089M21.8 25.37l-3.992-3.092" fill="none" stroke-linecap="round" stroke-miterlimit="10" />
    </symbol>
    <symbol viewBox="0 0 10.05 10.05" id="close" xmlns="http://www.w3.org/2000/svg">
        <path d="M6.23 5.03l3.6-3.6a.91.91 0 000-1.2.91.91 0 00-1.2 0l-3.6 3.6-3.6-3.6a.91.91 0 00-1.2 0 .91.91 0 000 1.2l3.6 3.6-3.6 3.6a.91.91 0 000 1.2.91.91 0 001.2 0l3.6-3.6 3.6 3.6a.85.85 0 001.2-1.2z" />
    </symbol>
    <symbol viewBox="0 0 22.4 21.32" id="editable" xmlns="http://www.w3.org/2000/svg">
        <g fill="none" stroke-miterlimit="10">
            <path d="M1.4 7.33l4.5-2.98 3.75 2.59 2.5-1.65 3 2.28" stroke-linecap="round" />
            <rect height="10" rx="1.62" stroke-linecap="round" width="15" x=".74" y=".5" />
            <path d="M1.4 14.5h6M1.4 17.5h6M9.24 14.5h6M9.24 17.5h6" />
            <circle cx="10.24" cy="3" r=".5" stroke-linecap="round" />
            <path d="M17.81 13.29l-7.68 7.68M20.16 12.09l.55-1.73-1.71.55-1.54-1.16.09 1.86-1.48 1 1.77.59.62 1.8 1-1.48 1.87.09z" />
        </g>
    </symbol>
    <symbol viewBox="0 0 22.4 21.32" id="education" xmlns="http://www.w3.org/2000/svg">
        <path d="M20.54 8.25v4M11 2.9L.58 7.48a.21.21 0 000 .33L11 12.61h.11l10.4-4.8a.21.21 0 000-.33L11.1 2.9s-.1-.05-.1 0zm-5.46 7.21v2.94a5.5 5.5 0 1011 0v-2.94m5 3.11a1 1 0 11-1-1 1 1 0 011 1z" fill="none" stroke-miterlimit="10" />
    </symbol>
    <symbol viewBox="0 0 32 32" id="email_marketing" xmlns="http://www.w3.org/2000/svg">
        <path d="M22.979 22.5H9.021A1.526 1.526 0 017.5 20.979v-8.958c0-.837.685-1.521 1.521-1.521h13.958c.837 0 1.521.685 1.521 1.521v8.958c0 .836-.685 1.521-1.521 1.521zM7.782 11.142l7.047 5.017c.66.465 1.556.465 2.216 0l7.172-5.017" fill="none" stroke-miterlimit="10" />
    </symbol>
    <symbol viewBox="0 0 62.2 60.2" id="engage" xmlns="http://www.w3.org/2000/svg">
        <g stroke-miterlimit="10" stroke-width="2">
            <path d="M52.2 29.7V12.8H8.9v16.9M1 23.9l25.7 18.6c2.3 1.7 5.4 1.7 7.7 0l25.7-18.6m-7.9-6.7l7.9 6.7v30.3c0 2.8-2.4 5-5.3 5H6.3c-2.9 0-5.3-2.2-5.3-5V23.9l7.9-6.7m5.3-4.4L26.5 2.3c2.4-1.7 5.7-1.7 8.2 0L47 12.7" fill="none" stroke="#7e909f" />
            <path d="M46 19.1c-.3 0-.6-.1-.9-.3-.4-.3-.6-.9-.5-1.4l.9-4.7-3.7-3.4c-.4-.4-.6-.9-.4-1.5.2-.5.6-.9 1.2-1l5.2-.7 2.3-4.3c.2-.5.7-.8 1.3-.8.5 0 1 .3 1.3.8L55 6.1l5 .8c.5.1 1 .5 1.2 1s0 1.1-.4 1.5L57 12.7l.9 4.7c.1.5-.1 1.1-.5 1.4-.3.2-.6.3-.9.3-.2 0-.4 0-.6-.1l-4.7-2.3-4.6 2.3c-.2.1-.4.1-.6.1z" fill="none" stroke="#fff" />
            <g fill="#fff" stroke="currentColor">
                <path d="M53.8 7.5l-2.6-5-2.6 5-5.9.8 4.3 3.9-1 5.5 5.2-2.6 5.3 2.6-1-5.5 4.3-3.9z" stroke-linejoin="round" />
                <path d="M25.7 29.8c0-2.3 2.1-4.1 4.7-4.1s4.7 1.8 4.7 4.1m-4.7-4.1c1.3 0 2.4-1 2.4-2.2s-1.1-2.2-2.4-2.2-2.4 1-2.4 2.2 1.1 2.2 2.4 2.2zM24.5 32.3h-1.8V19.2h1.8m12.1 13.1h1.8V19.2h-1.8" />
            </g>
        </g>
    </symbol>
    <symbol viewBox="0 0 70.6 51.6" id="grow" xmlns="http://www.w3.org/2000/svg">
        <clipPath id="aqa">
            <path d="M0 0h70.6v51.6H0z" />
        </clipPath>
        <path clip-path="url(#aqa)" d="M11.3 48.7c0-11.6 9.9-20.7 22.1-20.7s22 9.3 22 20.7M33.3 28c5.7 0 10.2-4.5 10.2-10.2S39 7.6 33.3 7.6s-10.2 4.5-10.2 10.2S27.8 28 33.3 28zm10.1-6.6c12.2 0 22.1 9.3 22.1 20.7M42.9 21.4c5.7 0 10.7-4.5 10.7-10.2S49.1 1 43.4 1c-4.3 0-8 2.8-9.5 6.6M23.1 21.8C10.9 21.8 1 31.1 1 42.5m22.5-20.7c-5.7 0-10.7-4.5-10.7-10.2S17.4 1.4 23.1 1.4c4.3 0 8 2.8 9.5 6.6" fill="none" stroke="#7e909f" stroke-miterlimit="10" stroke-width="2" />
        <path clip-path="url(#aqa)" d="M69.6 40.5c0 5.6-4.5 10.1-10.1 10.1s-10.1-4.5-10.1-10.1S54 30.4 59.5 30.4c5.6 0 10.1 4.6 10.1 10.1" fill="#fff" />
        <circle clip-path="url(#aqa)" cx="59.5" cy="40.5" fill="none" r="10.1" stroke="currentColor" stroke-miterlimit="10" stroke-width="2" />
        <path clip-path="url(#aqa)" d="M59.5 36.8v6.5" fill="#fff" />
        <path d="M59.5 36.8v6.5" fill="none" stroke="currentColor" stroke-width="2" stroke-linecap="round" stroke-miterlimit="10" clip-path="url(#aqa)" />
        <path clip-path="url(#aqa)" d="M62.8 40.1h-6.5" fill="#fff" />
        <path d="M62.8 40.1h-6.5" fill="none" stroke="currentColor" stroke-width="2" stroke-linecap="round" stroke-miterlimit="10" clip-path="url(#aqa)" />
    </symbol>
    <symbol viewBox="0 0 32 32" id="ip" xmlns="http://www.w3.org/2000/svg">
        <path d="M15.5 8v17m-6-17v17m6-7.5H20c2.5 0 4.5-2 4.5-4.5s-2-4.5-4.5-4.5h-4.5" fill="none" stroke="#000" stroke-miterlimit="10" />
    </symbol>
    <symbol viewBox="0 0 32 32" id="landing_pages" xmlns="http://www.w3.org/2000/svg">
        <path d="M21.538 25H10.462A2.47 2.47 0 018 22.538V10.462A2.47 2.47 0 0110.462 8h11.077A2.47 2.47 0 0124 10.462v12.077A2.47 2.47 0 0121.538 25zM8 15h16m-8 0v10" fill="none" stroke-miterlimit="10" />
    </symbol>
    <symbol viewBox="0 0 22.4 21.32" id="language" xmlns="http://www.w3.org/2000/svg">
        <path d="M11 19.73a9 9 0 119-9 9 9 0 01-9 9zm0 0v-18m9 9H2m7-8.66c-2 3.06-3 5.41-3 8.5a16 16 0 003 8.83m4 0a16 16 0 002.91-8.83c0-3.09-1-5.44-2.91-8.5M4.21 4.65a13.32 13.32 0 006.7 1.92 14.35 14.35 0 007-1.92m0 11.92a14.35 14.35 0 00-7-1.92 13.32 13.32 0 00-6.7 1.92" fill="none" stroke-miterlimit="10" />
    </symbol>
    <symbol viewBox="0 0 32 32" id="paid_ads" xmlns="http://www.w3.org/2000/svg">
        <g fill="none" stroke="#0f0f0f">
            <path d="M23.8 7.3v17.4l-11.7-5.2v-7zM12.1 12.5v7.1H8.8c-1 0-1.8-.9-1.8-1.9v-3.3c0-1 .8-1.9 1.8-1.9z" />
            <path d="M12.6 24.5h-2.2l-1.7-5h2.2zM27 16c0 1.8-1.5 3.3-3.2 3.3v-6.7c1.8.1 3.2 1.6 3.2 3.4z" />
        </g>
        <path d="M20.5 18.6c-.3.3-.8.5-1.4.6v.7c0 .1 0 .2-.1.3s-.2.1-.3.1-.2 0-.3-.1-.1-.2-.1-.3v-.7c-.4 0-.7-.1-1.1-.2-.3-.1-.6-.3-.9-.5-.1-.1-.2-.2-.2-.4 0-.1 0-.2.1-.3s.1-.1.2-.1.2 0 .3.1c.6.4 1.2.6 1.8.6.5 0 .8-.1 1.1-.3.2-.2.4-.5.4-.8 0-.2-.1-.4-.2-.5s-.3-.2-.5-.3-.5-.2-.8-.2c-.5-.1-.8-.2-1.1-.4-.3-.1-.5-.3-.7-.6s-.3-.6-.3-1c0-.5.2-.9.5-1.3.4-.4.8-.6 1.4-.6v-.7c0-.1 0-.2.1-.3s.2-.1.3-.1.2 0 .3.1.1.2.1.3v.7c.3 0 .6.1.9.2s.5.3.8.5c.1.1.2.2.2.4 0 .1 0 .2-.1.3s-.1.1-.2.1-.2 0-.3-.1c-.3-.2-.5-.4-.8-.5-.2-.1-.5-.2-.8-.2-.4 0-.8.1-1 .3-.3.2-.4.5-.4.8 0 .2.1.4.2.6.1.1.3.3.5.3.2.1.5.2.9.2.4.1.8.2 1.1.3s.5.3.7.5.3.6.3 1c-.1.7-.2 1.1-.6 1.5z" fill="#010101" />
    </symbol>
    <symbol viewBox="0 0 32 32" id="popups" xmlns="http://www.w3.org/2000/svg">
        <g fill="none" stroke="#000" stroke-linecap="round" stroke-miterlimit="10">
            <path d="M24.642 24.686H7.465c-.8 0-1.412-.567-1.412-1.308V8.994c0-.741.612-1.308 1.412-1.308h17.176c.8 0 1.412.567 1.412 1.308v14.385c.001.74-.611 1.307-1.411 1.307zM22.054 10.686l2 2M22.054 12.686l2-2" />
            <path d="M11.054 12.686h8v8.006h-8zM13.554 15.686h3M13.554 17.686h3" />
        </g>
    </symbol>
    <symbol viewBox="0 0 22.4 21.32" id="price" xmlns="http://www.w3.org/2000/svg">
        <path d="M13.59 8.13l-2.6-5-2.6 5-5.9.8 4.3 3.9-1 5.5 5.2-2.6 5.3 2.6-1-5.5 4.3-3.9z" fill="none" stroke-miterlimit="10" />
    </symbol>
    <symbol viewBox="0 0 32 32" id="resource_download" xmlns="http://www.w3.org/2000/svg">
        <g fill="none" stroke="#000" stroke-miterlimit="10">
            <path d="M22.3 6.9H8.4c-.6 0-1 .4-1 1s.4 1 1 1h13.9zM10.4 8.9h13v17h-13z" />
            <path d="M7.4 8.1v15.3c0 1.3 1.3 2.5 3 2.6V9H8.8C8 9 7.5 9 7.4 7.9M12.9 14.2h8M12.9 16.2h8" />
        </g>
    </symbol>
    <symbol viewBox="0 0 32 32" id="resource_read" xmlns="http://www.w3.org/2000/svg">
        <path d="M25.5 13.1v4m-9.6-9.3L5.5 12.4c-.1.1-.1.3 0 .3l10.4 4.8h.1l10.4-4.8c.1-.1.1-.3 0-.3L16.1 7.8c0-.1-.1-.1-.2 0zM10.5 15v2.9c0 3 2.5 5.6 5.5 5.6s5.5-2.5 5.5-5.6V15m5 3.1c0 .6-.4 1-1 1s-1-.4-1-1 .4-1 1-1 1 .5 1 1z" fill="none" stroke="#000" stroke-miterlimit="10" />
    </symbol>
    <symbol viewBox="0 0 32 32" id="resource_webinar" xmlns="http://www.w3.org/2000/svg">
        <path d="M15.8 6.6c-5 0-9 4-9 9s4 9 9 9 9-4 9-9-4-9-9-9zm2.8 9.4l-4.4 2.5h-.4c-.1-.1-.1-.2-.1-.3v-5.1c0-.1 0-.2.1-.3s.2-.1.3 0l4.4 2.5.3.3c0 .2-.1.3-.2.4z" fill="none" stroke="#000" stroke-miterlimit="10" />
    </symbol>
    <symbol viewBox="0 0 32 32" id="sales_funnel" xmlns="http://www.w3.org/2000/svg">
        <g fill="none" stroke="#000" stroke-linecap="round" stroke-miterlimit="10">
            <path d="M20.626 11.386h1.505c.846 0 1.48.317 1.691.74.106.317.211.951-.423 1.797l-4.757 5.391v3.651c0 .106-.106.211-.106.317l-4.651 2.854c-.106.106-.106.106-.211.106h-.106c-.106-.106-.211-.211-.211-.317v-6.61L8.6 13.924c-.634-.846-.529-1.48-.423-1.797.211-.529.846-.74 1.691-.74h1.398" />
            <path d="M9.983 5.759h.905c.547 0 .689.566.733.733.043.166 1.312 5.526 1.312 5.526s.153.741.741.741h4.618c.568 0 .721-.727.737-.801.122-.554.787-3.516.787-3.516s.15-.683-.758-.683h-7.075" />
            <circle cx="17.768" cy="14.259" r=".5" />
            <circle cx="13.768" cy="14.259" r=".5" />
        </g>
    </symbol>
    <symbol viewBox="0 0 57 62.8" id="sell" xmlns="http://www.w3.org/2000/svg">
        <g fill="none" stroke-miterlimit="10">
            <path d="M20.3 13.9L32.7 1.6c.6-.6 1.6-.6 2.2 0L47.4 14c.6.6.6 1.6 0 2.2L35 28.5c-.6.6-1.6.6-2.2 0L20.3 16.1c-.6-.5-.6-1.5 0-2.2z" stroke="currentColor" stroke-width="2.2" />
            <g stroke="#7c90a0" stroke-width="2">
                <path d="M0 11.2h6.8c3 0 3.7 3.1 4 4s7.1 27.3 7.1 27.3.8 4 4 4H47c3.3 0 4.5-5.4 4.2-4.2s4.7-18.1 4.7-18.1.9-4-4.4-4H12.8" />
                <circle cx="44.9" cy="57.2" r="4.6" />
                <circle cx="23.4" cy="57.2" r="4.6" />
            </g>
        </g>
    </symbol>
    <symbol viewBox="0 0 22.4 21.32" id="software" xmlns="http://www.w3.org/2000/svg">
        <path d="M8.85 9.63a1.41 1.41 0 10-2.85 0m10.12.12a1.41 1.41 0 10-2.81 0m-7 2.59a4.93 4.93 0 009.51.17M11 1.73a9 9 0 109 9 9 9 0 00-9-9z" fill="none" stroke-miterlimit="10" />
    </symbol>
    <symbol viewBox="0 0 32 32" id="support" xmlns="http://www.w3.org/2000/svg">
        <mask id="bda" height="16.4" maskUnits="userSpaceOnUse" width="19.2" x="-38.7" y="-35.9">
            <path d="M-19.6-19.5v-16.4h-19.1v16.4z" fill="#fff" />
        </mask>
        <path d="M15.8 9.8c-3.2 0-5.7 2.5-5.7 5.7v4.6c0 3.2 2.6 5.9 5.7 5.9s5.7-2.7 5.7-5.9v-4.6c0-3.1-2.6-5.7-5.7-5.7zm0 17.3c-3.7 0-6.9-3.2-6.9-7v-4.6c0-3.7 3.1-6.8 6.9-6.8s6.9 3 6.9 6.8v4.6c0 3.8-3.2 7-6.9 7z" />
        <path d="M-29.9-19.5c-6-.2-8.9-2.4-8.9-7 0-5.2 4.3-9.5 9.6-9.5s9.6 4.2 9.6 9.5v4.2h-3.3v-1.1h2.2v-3c0-4.6-3.8-8.3-8.5-8.3s-8.5 3.7-8.5 8.3c0 2.4.8 5.6 7.8 5.8z" mask="url(#bda)" transform="translate(45 41.381)" />
        <path d="M15.4 21c-.1 0-.1.1-.1.1 0 .1.1.1.1.1l.1-.1c.1 0 0-.1-.1-.1m0 1.5c-.7 0-1.3-.6-1.3-1.3s.6-1.3 1.3-1.3 1.3.6 1.3 1.3c.1.7-.5 1.3-1.3 1.3" />
    </symbol>
    <symbol viewBox="0 0 32 32" id="transactional_emails" xmlns="http://www.w3.org/2000/svg">
        <g fill="none" stroke="#000" stroke-miterlimit="10">
            <path d="M11.857 19.319H7.835c-.747 0-1.335-.637-1.335-1.389v-7.221c0-.811.641-1.389 1.335-1.389h12.331c.747 0 1.335.637 1.335 1.389v3.607m-6.306 0l6.05-4.415m-14.408.068l5.992 4.347" />
            <path d="M25.013 24.316H12.93c-.801 0-1.43-.634-1.43-1.382v-7.236c0-.806.686-1.382 1.43-1.382h12.14c.801 0 1.43.634 1.43 1.382v7.178c-.057.807-.744 1.44-1.487 1.44zM11.5 17.316h15M19 21.316h5" />
        </g>
    </symbol>
    <symbol viewBox="0 0 32 32" id="webinars" xmlns="http://www.w3.org/2000/svg">
        <path d="M16 20.9V25m-3.5 0h7M16 12.3c-1.2 0-2.1 1-2.1 2.1s1 2.1 2.1 2.1 2.1-1 2.1-2.1-.9-2.1-2.1-2.1zM16 8c-3.6 0-6.5 2.9-6.5 6.5S12.4 21 16 21s6.5-2.9 6.5-6.5S19.6 8 16 8z" fill="none" stroke="#000" stroke-miterlimit="10" />
    </symbol>
    <symbol viewBox="0 0 32 32" id="website_visitor_tracking" xmlns="http://www.w3.org/2000/svg">
        <g fill="none" stroke="#000" stroke-miterlimit="10">
            <path d="M15.575 14.642c-1.053 0-1.938.881-1.938 2.025 0 1.101.885 2.025 1.938 2.025s1.938-.881 1.938-2.025c0-1.1-.885-2.025-1.938-2.025z" />
            <path d="M15.575 10.9c-4.213 0-7.962 2.113-10.405 5.459a.55.55 0 000 .616c2.443 3.302 6.193 5.459 10.405 5.459s7.962-2.113 10.405-5.459a.55.55 0 000-.616c-2.443-3.302-6.192-5.459-10.405-5.459z" />
            <ellipse cx="15.575" cy="16.668" rx="5.519" ry="5.768" />
        </g>
    </symbol>
</svg>